<svg width="285" height="64" viewBox="0 0 285 190" fill="currentColor" xmlns="http://www.w3.org/2000/svg">
<g filter="url(#filter0_i_11_226)">
<path d="M46.3125 27.1429H24.9375C19.0148 27.1429 14.25 31.6808 14.25 37.3214V81.4286H3.5625C1.60312 81.4286 0 82.9554 0 84.8214V105.179C0 107.045 1.60312 108.571 3.5625 108.571H14.25V152.679C14.25 158.319 19.0148 162.857 24.9375 162.857H46.3125C52.2352 162.857 57 158.319 57 152.679V37.3214C57 31.6808 52.2352 27.1429 46.3125 27.1429ZM281.438 81.4286H270.75V37.3214C270.75 31.6808 265.985 27.1429 260.062 27.1429H238.688C232.765 27.1429 228 31.6808 228 37.3214V152.679C228 158.319 232.765 162.857 238.688 162.857H260.062C265.985 162.857 270.75 158.319 270.75 152.679V108.571H281.438C283.397 108.571 285 107.045 285 105.179V84.8214C285 82.9554 283.397 81.4286 281.438 81.4286ZM203.062 0H181.688C175.765 0 171 4.53795 171 10.1786V81.4286H114V10.1786C114 4.53795 109.235 0 103.312 0H81.9375C76.0148 0 71.25 4.53795 71.25 10.1786V179.821C71.25 185.462 76.0148 190 81.9375 190H103.312C109.235 190 114 185.462 114 179.821V108.571H171V179.821C171 185.462 175.765 190 181.688 190H203.062C208.985 190 213.75 185.462 213.75 179.821V10.1786C213.75 4.53795 208.985 0 203.062 0Z" fill="#4B5358"/>
</g>
<defs>
<filter id="filter0_i_11_226" x="0" y="0" width="285" height="192" filterUnits="userSpaceOnUse" color-interpolation-filters="sRGB">
<feFlood flood-opacity="0" result="BackgroundImageFix"/>
<feBlend mode="normal" in="SourceGraphic" in2="BackgroundImageFix" result="shape"/>
<feColorMatrix in="SourceAlpha" type="matrix" values="0 0 0 0 0 0 0 0 0 0 0 0 0 0 0 0 0 0 127 0" result="hardAlpha"/>
<feOffset dy="3"/>
<feGaussianBlur stdDeviation="1"/>
<feComposite in2="hardAlpha" operator="arithmetic" k2="-1" k3="1"/>
<feColorMatrix type="matrix" values="0 0 0 0 0 0 0 0 0 0 0 0 0 0 0 0 0 0 0.25 0"/>
<feBlend mode="normal" in2="shape" result="effect1_innerShadow_11_226"/>
</filter>
</defs>
</svg>
