<svg width="93" height="93" viewBox="0 0 93 93" fill="none" xmlns="http://www.w3.org/2000/svg">
<path d="M52.8225 52.6523C53.1908 51.627 53.4875 50.8374 53.7126 50.2837C53.9377 49.73 54.2651 49.043 54.6948 48.2227C55.1244 47.4023 55.5132 46.7666 55.861 46.3154C56.2089 45.8643 56.6693 45.3618 57.2422 44.8081C57.8151 44.2544 58.4187 43.834 59.053 43.5469C59.6873 43.2598 60.4444 43.0239 61.3242 42.8394C62.2041 42.6548 63.1555 42.5625 64.1786 42.5625C66.8795 42.5625 69.1916 43.5264 71.115 45.4541C73.0383 47.3818 74 49.6992 74 52.4063C74 55.4414 72.9565 58.2407 70.8694 60.8042C68.7824 63.3677 65.8973 65.4492 62.2143 67.0488V74.0625C62.2143 75.1699 60.6797 76.103 57.6105 76.8618C54.5413 77.6206 50.8378 78 46.5 78C42.1622 78 38.4587 77.6206 35.3895 76.8618C32.3203 76.103 30.7857 75.1699 30.7857 74.0625V65.1416C27.1436 62.5986 24.2688 59.3481 22.1613 55.3901C20.0538 51.4321 19 47.1563 19 42.5625C19 38.8301 19.7264 35.2617 21.1791 31.8574C22.6319 28.4531 24.5859 25.5205 27.0413 23.0596C29.4967 20.5986 32.4226 18.6401 35.8192 17.1841C39.2158 15.728 42.776 15 46.5 15C49.5692 15 52.4645 15.2666 55.1858 15.7998C57.9072 16.333 60.4035 17.1226 62.6747 18.1685C64.9459 19.2144 66.7465 20.6499 68.0765 22.4751C69.4064 24.3003 70.0714 26.4023 70.0714 28.7813C70.0714 30.627 69.7543 32.2368 69.12 33.6108C68.4857 34.9849 67.6468 36.0103 66.6032 36.687C65.5597 37.3638 64.5162 37.856 63.4727 38.1636C62.4291 38.4712 61.3549 38.625 60.25 38.625C58.1629 38.625 56.0043 39.7324 53.774 41.9473C51.5437 44.1621 50.4286 46.3359 50.4286 48.4687C50.4286 50.1094 51.2266 51.5039 52.8225 52.6523Z" fill="url(#paint0_linear_53_19)"/>
<circle cx="46.5" cy="46.5" r="43" stroke="url(#paint1_linear_53_19)" stroke-width="7"/>
<defs>
<linearGradient id="paint0_linear_53_19" x1="46.5" y1="15" x2="46.5" y2="78" gradientUnits="userSpaceOnUse">
<stop stop-color="#497F9E"/>
<stop offset="1" stop-color="#BA76DA"/>
</linearGradient>
<linearGradient id="paint1_linear_53_19" x1="46.5" y1="0" x2="46.5" y2="93" gradientUnits="userSpaceOnUse">
<stop stop-color="#497F9E"/>
<stop offset="1" stop-color="#BA76DA"/>
</linearGradient>
</defs>
</svg>
