<svg width="90" height="90" viewBox="0 0 90 90" fill="none" xmlns="http://www.w3.org/2000/svg">
<path d="M68.6041 6.71326C61.2562 2.15913 53.0918 0 45.0363 0C29.9413 0 15.2091 7.60231 6.70005 21.3917C-6.34479 42.5475 0.241134 70.2533 21.3959 83.2988C42.5507 96.3443 70.2551 89.7581 83.3 68.6204C96.3448 47.4646 89.7589 19.7406 68.6041 6.71326V6.71326ZM78.0022 65.3545C70.6724 77.2388 57.9723 83.7706 44.9819 83.7706C43.7481 83.7706 42.5144 83.698 41.2807 83.5891C39.6478 81.1216 37.6702 77.5472 36.9808 75.8961C35.9466 73.4104 32.0459 67.6225 42.6414 63.7215C52.0214 60.256 74.7002 60.7278 80.5241 60.5282C79.7983 62.1611 78.9638 63.776 78.0022 65.3545V65.3545ZM41.571 49.6963C31.5016 49.4422 26.7481 45.9223 30.9573 40.9509C35.1665 35.9794 40.2284 33.5663 43.4578 31.6612C46.7054 29.7561 48.4109 25.5467 39.1761 26.2724C15.8441 27.851 8.82279 44.2894 6.82705 51.7102C5.23047 42.6927 6.80891 33.0764 11.9978 24.6576C23.2284 6.42295 47.1046 0.762045 65.3383 11.9931C78.9093 20.3575 85.5134 35.7436 83.3544 50.5853C78.8368 50.4946 50.8239 49.9321 41.571 49.6963ZM74.9179 39.7534C70.7994 38.6647 64.5763 41.8036 59.1879 44.6885C53.7994 47.5553 53.5454 46.1763 53.5454 46.1763C53.5454 46.1763 60.8389 41.0779 62.7439 39.9167C64.6489 38.7555 68.5315 37.3765 65.1751 35.4533C64.5945 35.1267 63.9595 34.9634 63.2882 34.9634C60.0587 34.9634 55.7588 38.3563 51.0416 41.4226C45.3266 45.1421 39.1942 47.1017 39.1942 47.1017L69.9467 46.8114L78.3832 42.5657C78.3832 42.5657 79.0363 40.842 74.9179 39.7534V39.7534Z" fill="url(#paint0_linear_53_20)"/>
<defs>
<linearGradient id="paint0_linear_53_20" x1="45" y1="0" x2="45" y2="90" gradientUnits="userSpaceOnUse">
<stop stop-color="#497F9E"/>
<stop offset="1" stop-color="#BA76DA"/>
</linearGradient>
</defs>
</svg>
